<?xml version="1.0" encoding="UTF-8" standalone="no"?>
<!DOCTYPE svg PUBLIC "-//W3C//DTD SVG 1.1//EN" "http://www.w3.org/Graphics/SVG/1.1/DTD/svg11.dtd">
<svg width="100%" height="100%" viewBox="0 0 519 739" version="1.1" xmlns="http://www.w3.org/2000/svg" xmlns:xlink="http://www.w3.org/1999/xlink" xml:space="preserve" xmlns:serif="http://www.serif.com/" style="fill-rule:evenodd;clip-rule:evenodd;stroke-linejoin:round;stroke-miterlimit:2;">
    <g id="Mesa-de-trabajo1" serif:id="Mesa de trabajo1" transform="matrix(0.270204,0,0,0.683963,0,0)">
        <rect x="0" y="0" width="1920" height="1080" style="fill:none;"/>
        <clipPath id="_clip1">
            <rect x="0" y="0" width="1920" height="1080"/>
        </clipPath>
        <g clip-path="url(#_clip1)">
            <g transform="matrix(3.22719,0,0,1,-2138.11,0)">
                <g transform="matrix(1.6136,0,0,1.83966,-150.361,-194.101)">
                    <rect x="93.184" y="104.8" width="1189.89" height="587.776" style="fill:rgb(129,165,161);"/>
                </g>
                <g id="Nubes" transform="matrix(1,0,0,1.07253,0,-107.573)">
                    <g id="nube" transform="matrix(1.14679,0,0,1.3632,2.86697,-2.04479)">
                        <path d="M683.282,336.072L611.333,336.072C611.313,335.934 611.302,335.796 611.302,335.655C611.302,332.62 616.156,330.155 622.134,330.155C623.45,330.155 624.712,330.275 625.88,330.494C625.867,330.354 625.861,330.213 625.861,330.072C625.861,325.054 633.895,320.817 644.863,319.497C643.608,317.329 642.926,314.998 642.926,312.572C642.926,302.585 654.486,294.218 669.954,292.093C660.723,284.044 654.926,272.45 654.926,259.572C654.926,235.288 675.538,215.572 700.926,215.572C725.036,215.572 744.839,233.353 746.771,255.941C752.828,250.918 759.696,248.587 766.345,249.985C778.906,252.628 786.819,267.772 786.548,286.204C789.226,287.508 791.727,289.027 794.015,290.732C798.192,286.034 804.739,283.006 812.093,283.006C824.695,283.006 834.926,291.898 834.926,302.85C834.926,313.802 824.695,322.693 812.093,322.693C810.917,322.693 809.762,322.616 808.634,322.467C806.355,338.842 791.002,352.023 771.259,354.96C771.239,356.971 770.683,358.911 769.667,360.739L646.083,360.739C646.835,356.523 650.212,353.34 654.259,353.34C656.171,353.34 657.934,354.05 659.34,355.244C664.004,349.141 672.972,345.006 683.259,345.006C684.299,345.006 685.326,345.049 686.335,345.131C684.54,342.446 683.449,339.363 683.282,336.072Z" style="fill:rgb(145,179,175);"/>
                    </g>
                    <g transform="matrix(1.10939,0,0,1.67849,304.117,-175.296)">
                        <path d="M684.301,321.206L587.674,321.206C590.464,317.401 594.536,314.718 599.527,313.847C601.517,313.499 603.529,313.461 605.52,313.701C605.016,312.521 604.581,311.298 604.225,310.039C600.388,296.47 607.083,283.741 619.167,281.631C621.533,281.218 623.931,281.243 626.286,281.651C624.535,269.288 632.918,258.024 646.251,255.696C649.223,255.178 652.211,255.143 655.118,255.533C657.252,233.139 676.961,215.572 700.926,215.572C726.314,215.572 746.926,235.288 746.926,259.572C746.926,265.31 745.775,270.793 743.683,275.821C748.857,274.848 754.217,275.107 759.147,276.833C770.387,280.769 775.904,291.108 773.45,301.734C777.524,299.478 781.502,298.673 784.694,299.791C788.106,300.986 790.041,304.175 790.475,308.482L721.169,308.482L684.301,321.206Z" style="fill:rgb(145,179,175);"/>
                    </g>
                    <g transform="matrix(1.04254,0,0,1.3632,109.663,0)">
                        <path d="M1052.7,225.572C1054.34,219.415 1058.28,215.072 1062.88,215.072C1066.61,215.072 1069.91,217.924 1071.9,222.283C1073.4,220.112 1075.28,218.822 1077.32,218.822C1080.24,218.822 1082.84,221.474 1084.47,225.572L1052.7,225.572Z" style="fill:rgb(145,179,175);"/>
                    </g>
                </g>
                <g transform="matrix(1.6136,0,0,1.00533,-154.457,467.286)">
                    <path d="M1283.07,104.8L1088.03,106.98L1025.32,91.791L1003.8,80.628L986.078,50.034L958.369,72.042L933.801,59.648L927.113,23.183L922.235,4.717L917.752,17.233L913.743,-7.09L896.548,-59.056L887.805,-42.132L879.761,-1.294L842.857,57.182L822.383,26.657L809.504,-18.587L771.703,-139.594L760.675,-144.865L750.754,-98.295L745.287,-111.179L718.686,-22.539L705.169,-45.606L695.184,-48.205L683.51,-10.094L677.507,-23.062L657.155,37.782L637.546,57.791L616.444,110.087L606.997,110.18L599.678,88.941L588.052,77.955L581.511,94.171L569.162,104.59L548.754,73.727L538.627,83.866L508.652,21.462L504.334,37.089L494.128,39.878L477.445,66.092L468.737,79.199L457.079,78.832L445.427,60.146L422.145,52.601L401.789,22.403L367.578,51.867L358.133,66.336L353.029,50.98L343.57,42.959L326.069,79.731L316.606,79.483L267.119,104.8L93.184,104.8L93.184,692.576L1283.07,692.576L1283.07,104.8Z" style="fill:rgb(114,149,151);"/>
                </g>
                <g transform="matrix(1.6136,0,0,0.926368,-151.385,555.916)">
                    <path d="M1283.07,104.8L1077.12,119.509L1034.14,101.104L986.146,126.492L951.348,109.206L910.496,150.01L895.223,132.209L885.732,87.793L872.585,80.328L869.683,31.526L860.099,84.433L853.667,12.939L847.181,88.25L815.849,83.91L804.909,103.269L792.566,133.157L786.024,110.66L768.605,110.865L759.887,132.57L748.229,147.878L711.822,150.811L697.202,171.879L664.482,157.377L609.889,90.198L570.591,89.346L566.222,100.608L554.592,100.54L545.851,121.785L543.666,100.747L515.918,100.595L500.732,-4.762L491.998,111.735L484.791,46.348L466.534,177.063L458.583,163.08L449.052,163.754L429.412,110.523L397.415,110.737L376.283,127.426L270.03,104.8L93.184,104.8L93.184,692.576L1283.07,692.576L1283.07,104.8Z" style="fill:rgb(102,124,138);"/>
                </g>
                <g transform="matrix(1.6136,0,0,0.834671,-145.241,738.226)">
                    <path d="M1283.07,104.8L1112.78,99.942L1094.62,121.05L1072.11,139.867L1056.65,168.958L1000.01,175.169L976.146,150.099L947.858,178.482L931.674,227.977L920.265,207.108L910.55,266.397L888.444,267.439L876.364,254.761L870.607,226.536L864.81,261.894L855.083,270.892L846.378,235.338L833.465,205.956L809.988,183.042L780.946,144.178L722.682,138.592L712.455,159.441L697.951,160.83L688.497,138.207L665.956,139.473L654.292,158.468L641.203,123.027L607.691,123.979L563.29,176.238L558.25,148.278L548.799,179.361L532.139,181.053L502.281,200.87L478.209,185.87L446.13,165.236L441.054,135.163L389.4,106.573L364.64,137.933L345.032,138.64L331.187,159.204L289.698,148.539L260.569,72.513L235.097,104.8L93.184,104.8L93.184,692.576L1283.07,692.576L1283.07,104.8Z" style="fill:rgb(89,108,123);"/>
                </g>
            </g>
        </g>
    </g>
</svg>
